MutatorSansInstance_600-800.ufo
<glyph name="comma" format="2">
  <advance width="286"/>
  <unicode hex="002C"/>
  <outline>
    <contour>
      <point x="210" y="0" type="line"/>
      <point x="210" y="260" type="line"/>
      <point x="76" y="260" type="line"/>
      <point x="76" y="0" type="line"/>
      <point x="136" y="-13" type="line"/>
      <point x="127" y="12" type="line"/>
      <point x="105" y="-123" type="line"/>
      <point x="153" y="-125" type="line"/>
    </contour>
  </outline>
</glyph>
<glyph name="A" format="2">
  <advance width="1124"/>
  <unicode hex="0041"/>
  <outline>
    <contour>
      <point x="32" y="0" type="line"/>
      <point x="237" y="0" type="line"/>
      <point x="562" y="760" type="line"/>
      <point x="386" y="760" type="line"/>
    </contour>
    <contour>
      <point x="202" y="157" type="line"/>
      <point x="852" y="157" type="line"/>
      <point x="852" y="300" type="line"/>
      <point x="202" y="300" type="line"/>
    </contour>
    <contour>
      <point x="808" y="0" type="line"/>
      <point x="1095" y="0" type="line"/>
      <point x="741" y="760" type="line"/>
      <point x="468" y="760" type="line"/>
    </contour>
    <contour>
      <point x="420" y="589" type="line"/>
      <point x="676" y="589" type="line"/>
      <point x="676" y="760" type="line"/>
      <point x="420" y="760" type="line"/>
    </contour>
  </outline>
</glyph>
<glyph name="B" format="2">
  <advance width="1120"/>
  <unicode hex="0042"/>
  <outline>
    <contour>
      <point x="76" y="0" type="line"/>
      <point x="330" y="0" type="line"/>
      <point x="330" y="760" type="line"/>
      <point x="76" y="760" type="line"/>
    </contour>
    <contour>
      <point x="301" y="337" type="line"/>
      <point x="715" y="337" type="line" smooth="yes"/>
      <point x="785" y="337"/>
      <point x="825" y="307"/>
      <point x="825" y="246" type="curve" smooth="yes"/>
      <point x="825" y="187"/>
      <point x="785" y="157"/>
      <point x="714" y="157" type="curve" smooth="yes"/>
      <point x="301" y="157" type="line"/>
      <point x="301" y="0" type="line"/>
      <point x="800" y="0" type="line" smooth="yes"/>
      <point x="1016" y="0"/>
      <point x="1080" y="89"/>
      <point x="1080" y="211" type="curve" smooth="yes"/>
      <point x="1080" y="323"/>
      <point x="1018" y="389"/>
      <point x="912" y="405" type="curve"/>
      <point x="892" y="365" type="line"/>
      <point x="975" y="383"/>
      <point x="1044" y="442"/>
      <point x="1044" y="545" type="curve" smooth="yes"/>
      <point x="1044" y="674"/>
      <point x="969" y="760"/>
      <point x="750" y="760" type="curve" smooth="yes"/>
      <point x="301" y="760" type="line"/>
      <point x="301" y="610" type="line"/>
      <point x="676" y="610" type="line" smooth="yes"/>
      <point x="751" y="610"/>
      <point x="790" y="580"/>
      <point x="790" y="523" type="curve" smooth="yes"/>
      <point x="790" y="458"/>
      <point x="750" y="434"/>
      <point x="676" y="434" type="curve" smooth="yes"/>
      <point x="301" y="434" type="line"/>
    </contour>
  </outline>
</glyph>
<glyph name="C" format="2">
  <advance width="1215"/>
  <unicode hex="0043"/>
  <outline>
    <contour>
      <point x="908" y="329" type="line"/>
      <point x="886" y="211"/>
      <point x="789" y="163"/>
      <point x="644" y="163" type="curve" smooth="yes"/>
      <point x="581" y="163" type="line" smooth="yes"/>
      <point x="416" y="163"/>
      <point x="313" y="227"/>
      <point x="313" y="383" type="curve" smooth="yes"/>
      <point x="313" y="536"/>
      <point x="416" y="597"/>
      <point x="581" y="597" type="curve" smooth="yes"/>
      <point x="644" y="597" type="line" smooth="yes"/>
      <point x="788" y="597"/>
      <point x="884" y="552"/>
      <point x="907" y="438" type="curve"/>
      <point x="1163" y="465" type="line"/>
      <point x="1125" y="673"/>
      <point x="942" y="770"/>
      <point x="669" y="770" type="curve" smooth="yes"/>
      <point x="554" y="770" type="line" smooth="yes"/>
      <point x="245" y="770"/>
      <point x="51" y="647"/>
      <point x="51" y="383" type="curve" smooth="yes"/>
      <point x="51" y="116"/>
      <point x="245" y="-10"/>
      <point x="554" y="-10" type="curve" smooth="yes"/>
      <point x="669" y="-10" type="line" smooth="yes"/>
      <point x="944" y="-10"/>
      <point x="1127" y="91"/>
      <point x="1164" y="303" type="curve"/>
    </contour>
  </outline>
</glyph>
<glyph name="D" format="2">
  <advance width="1098"/>
  <unicode hex="0044"/>
  <outline>
    <contour>
      <point x="76" y="0" type="line"/>
      <point x="328" y="0" type="line"/>
      <point x="328" y="760" type="line"/>
      <point x="76" y="760" type="line"/>
    </contour>
    <contour>
      <point x="290" y="593" type="line"/>
      <point x="515" y="593" type="line" smooth="yes"/>
      <point x="681" y="593"/>
      <point x="785" y="536"/>
      <point x="785" y="383" type="curve" smooth="yes"/>
      <point x="785" y="227"/>
      <point x="681" y="167"/>
      <point x="515" y="167" type="curve" smooth="yes"/>
      <point x="289" y="167" type="line"/>
      <point x="289" y="0" type="line"/>
      <point x="541" y="0" type="line" smooth="yes"/>
      <point x="851" y="0"/>
      <point x="1047" y="117"/>
      <point x="1047" y="383" type="curve" smooth="yes"/>
      <point x="1047" y="646"/>
      <point x="851" y="760"/>
      <point x="541" y="760" type="curve" smooth="yes"/>
      <point x="290" y="760" type="line"/>
    </contour>
  </outline>
</glyph>
<glyph name="E" format="2">
  <advance width="1035"/>
  <unicode hex="0045"/>
  <anchor x="504" y="803" name="top"/>
  <outline>
    <contour>
      <point x="77" y="0" type="line"/>
      <point x="329" y="0" type="line"/>
      <point x="329" y="760" type="line"/>
      <point x="77" y="760" type="line"/>
    </contour>
    <contour>
      <point x="139" y="584" type="line"/>
      <point x="961" y="584" type="line"/>
      <point x="961" y="760" type="line"/>
      <point x="139" y="760" type="line"/>
    </contour>
    <contour>
      <point x="139" y="0" type="line"/>
      <point x="961" y="0" type="line"/>
      <point x="961" y="176" type="line"/>
      <point x="139" y="176" type="line"/>
    </contour>
    <contour>
      <point x="139" y="323" type="line"/>
      <point x="814" y="323" type="line"/>
      <point x="814" y="439" type="line"/>
      <point x="139" y="439" type="line"/>
    </contour>
  </outline>
</glyph>
<glyph name="F" format="2">
  <advance width="1048"/>
  <unicode hex="0046"/>
  <outline>
    <contour>
      <point x="76" y="0" type="line"/>
      <point x="332" y="0" type="line"/>
      <point x="332" y="760" type="line"/>
      <point x="76" y="760" type="line"/>
    </contour>
    <contour>
      <point x="139" y="586" type="line"/>
      <point x="972" y="586" type="line"/>
      <point x="972" y="760" type="line"/>
      <point x="139" y="760" type="line"/>
    </contour>
    <contour>
      <point x="139" y="265" type="line"/>
      <point x="908" y="265" type="line"/>
      <point x="908" y="415" type="line"/>
      <point x="139" y="415" type="line"/>
    </contour>
  </outline>
</glyph>
<glyph name="G" format="2">
  <advance width="1256"/>
  <unicode hex="0047"/>
  <outline>
    <contour>
      <point x="528" y="308" type="line"/>
      <point x="932" y="308" type="line"/>
      <point x="932" y="216" type="line"/>
      <point x="1046" y="0" type="line"/>
      <point x="1185" y="0" type="line"/>
      <point x="1185" y="383" type="line"/>
      <point x="528" y="383" type="line"/>
    </contour>
    <contour>
      <point x="926" y="335" type="line"/>
      <point x="904" y="216"/>
      <point x="807" y="163"/>
      <point x="660" y="163" type="curve" smooth="yes"/>
      <point x="581" y="163" type="line" smooth="yes"/>
      <point x="416" y="163"/>
      <point x="313" y="227"/>
      <point x="313" y="383" type="curve" smooth="yes"/>
      <point x="313" y="536"/>
      <point x="417" y="597"/>
      <point x="583" y="597" type="curve" smooth="yes"/>
      <point x="662" y="597" type="line" smooth="yes"/>
      <point x="807" y="597"/>
      <point x="903" y="552"/>
      <point x="926" y="438" type="curve"/>
      <point x="1178" y="465" type="line"/>
      <point x="1140" y="673"/>
      <point x="958" y="770"/>
      <point x="686" y="770" type="curve" smooth="yes"/>
      <point x="554" y="770" type="line" smooth="yes"/>
      <point x="246" y="770"/>
      <point x="51" y="647"/>
      <point x="51" y="383" type="curve" smooth="yes"/>
      <point x="51" y="116"/>
      <point x="245" y="-10"/>
      <point x="554" y="-10" type="curve" smooth="yes"/>
      <point x="599" y="-10" type="line" smooth="yes"/>
      <point x="873" y="-10"/>
      <point x="1052" y="96"/>
      <point x="1087" y="310" type="curve"/>
    </contour>
  </outline>
</glyph>
<glyph name="H" format="2">
  <advance width="1144"/>
  <unicode hex="0048"/>
  <outline>
    <contour>
      <point x="76" y="0" type="line"/>
      <point x="332" y="0" type="line"/>
      <point x="332" y="760" type="line"/>
      <point x="76" y="760" type="line"/>
    </contour>
    <contour>
      <point x="179" y="294" type="line"/>
      <point x="967" y="294" type="line"/>
      <point x="967" y="465" type="line"/>
      <point x="179" y="465" type="line"/>
    </contour>
    <contour>
      <point x="813" y="0" type="line"/>
      <point x="1069" y="0" type="line"/>
      <point x="1069" y="760" type="line"/>
      <point x="813" y="760" type="line"/>
    </contour>
  </outline>
</glyph>
<glyph name="I" format="2">
  <advance width="880"/>
  <unicode hex="0049"/>
  <outline>
    <contour>
      <point x="314" y="0" type="line"/>
      <point x="570" y="0" type="line"/>
      <point x="570" y="760" type="line"/>
      <point x="314" y="760" type="line"/>
    </contour>
    <contour>
      <point x="76" y="582" type="line"/>
      <point x="804" y="582" type="line"/>
      <point x="804" y="760" type="line"/>
      <point x="76" y="760" type="line"/>
    </contour>
    <contour>
      <point x="76" y="0" type="line"/>
      <point x="804" y="0" type="line"/>
      <point x="804" y="178" type="line"/>
      <point x="76" y="178" type="line"/>
    </contour>
  </outline>
</glyph>
<glyph name="J" format="2">
  <advance width="817"/>
  <unicode hex="004A"/>
  <outline>
    <contour>
      <point x="236" y="-10" type="curve" smooth="yes"/>
      <point x="547" y="-10"/>
      <point x="741" y="115"/>
      <point x="741" y="379" type="curve" smooth="yes"/>
      <point x="741" y="760" type="line"/>
      <point x="480" y="760" type="line"/>
      <point x="480" y="402" type="line" smooth="yes"/>
      <point x="480" y="245"/>
      <point x="385" y="180"/>
      <point x="232" y="180" type="curve" smooth="yes"/>
      <point x="198" y="180"/>
      <point x="153" y="183"/>
      <point x="108" y="191" type="curve"/>
      <point x="76" y="4" type="line"/>
      <point x="125" y="-6"/>
      <point x="178" y="-10"/>
    </contour>
  </outline>
</glyph>
<glyph name="K" format="2">
  <advance width="1090"/>
  <unicode hex="004B"/>
  <outline>
    <contour>
      <point x="76" y="0" type="line"/>
      <point x="332" y="0" type="line"/>
      <point x="332" y="760" type="line"/>
      <point x="76" y="760" type="line"/>
    </contour>
    <contour>
      <point x="243" y="308" type="line"/>
      <point x="361" y="308" type="line"/>
      <point x="719" y="0" type="line"/>
      <point x="1052" y="0" type="line"/>
      <point x="567" y="453" type="line"/>
      <point x="368" y="406" type="line"/>
      <point x="243" y="406" type="line"/>
    </contour>
    <contour>
      <point x="340" y="384" type="line"/>
      <point x="486" y="314" type="line"/>
      <point x="1044" y="760" type="line"/>
      <point x="748" y="760" type="line"/>
    </contour>
  </outline>
</glyph>
<glyph name="L" format="2">
  <advance width="920"/>
  <unicode hex="004C"/>
  <outline>
    <contour>
      <point x="76" y="0" type="line"/>
      <point x="332" y="0" type="line"/>
      <point x="332" y="760" type="line"/>
      <point x="76" y="760" type="line"/>
    </contour>
    <contour>
      <point x="139" y="0" type="line"/>
      <point x="892" y="0" type="line"/>
      <point x="892" y="179" type="line"/>
      <point x="139" y="179" type="line"/>
    </contour>
  </outline>
</glyph>
<glyph name="M" format="2">
  <advance width="1170"/>
  <unicode hex="004D"/>
  <outline>
    <contour>
      <point x="76" y="0" type="line"/>
      <point x="275" y="0" type="line"/>
      <point x="275" y="760" type="line"/>
      <point x="76" y="760" type="line"/>
    </contour>
    <contour>
      <point x="1094" y="0" type="line"/>
      <point x="1094" y="760" type="line"/>
      <point x="895" y="760" type="line"/>
      <point x="895" y="0" type="line"/>
    </contour>
    <contour>
      <point x="974" y="510" type="line"/>
      <point x="895" y="760" type="line"/>
      <point x="563" y="440" type="line"/>
      <point x="607" y="440" type="line"/>
      <point x="275" y="760" type="line"/>
      <point x="196" y="510" type="line"/>
      <point x="542" y="180" type="line"/>
      <point x="628" y="180" type="line"/>
    </contour>
  </outline>
</glyph>
<glyph name="N" format="2">
  <advance width="1145"/>
  <unicode hex="004E"/>
  <outline>
    <contour>
      <point x="76" y="0" type="line"/>
      <point x="275" y="0" type="line"/>
      <point x="275" y="760" type="line"/>
      <point x="76" y="760" type="line"/>
    </contour>
    <contour>
      <point x="191" y="544" type="line"/>
      <point x="870" y="0" type="line"/>
      <point x="955" y="216" type="line"/>
      <point x="275" y="760" type="line"/>
    </contour>
    <contour>
      <point x="870" y="0" type="line"/>
      <point x="1070" y="0" type="line"/>
      <point x="1070" y="760" type="line"/>
      <point x="870" y="760" type="line"/>
    </contour>
  </outline>
</glyph>
<glyph name="O" format="2">
  <advance width="1227"/>
  <unicode hex="004F"/>
  <outline>
    <contour>
      <point x="554" y="-10" type="curve" smooth="yes"/>
      <point x="673" y="-10" type="line" smooth="yes"/>
      <point x="981" y="-10"/>
      <point x="1176" y="116"/>
      <point x="1176" y="383" type="curve" smooth="yes"/>
      <point x="1176" y="647"/>
      <point x="981" y="770"/>
      <point x="673" y="770" type="curve" smooth="yes"/>
      <point x="554" y="770" type="line" smooth="yes"/>
      <point x="245" y="770"/>
      <point x="51" y="647"/>
      <point x="51" y="383" type="curve" smooth="yes"/>
      <point x="51" y="116"/>
      <point x="245" y="-10"/>
    </contour>
    <contour>
      <point x="581" y="163" type="line" smooth="yes"/>
      <point x="416" y="163"/>
      <point x="313" y="227"/>
      <point x="313" y="383" type="curve" smooth="yes"/>
      <point x="313" y="536"/>
      <point x="416" y="597"/>
      <point x="581" y="597" type="curve" smooth="yes"/>
      <point x="647" y="597" type="line" smooth="yes"/>
      <point x="812" y="597"/>
      <point x="914" y="536"/>
      <point x="914" y="383" type="curve" smooth="yes"/>
      <point x="914" y="227"/>
      <point x="812" y="163"/>
      <point x="647" y="163" type="curve" smooth="yes"/>
    </contour>
  </outline>
</glyph>
<glyph name="P" format="2">
  <advance width="1054"/>
  <unicode hex="0050"/>
  <outline>
    <contour>
      <point x="76" y="0" type="line"/>
      <point x="332" y="0" type="line"/>
      <point x="332" y="760" type="line"/>
      <point x="76" y="760" type="line"/>
    </contour>
    <contour>
      <point x="234" y="576" type="line"/>
      <point x="605" y="576" type="line" smooth="yes"/>
      <point x="746" y="576"/>
      <point x="793" y="534"/>
      <point x="793" y="450" type="curve" smooth="yes"/>
      <point x="793" y="361"/>
      <point x="746" y="322"/>
      <point x="605" y="322" type="curve" smooth="yes"/>
      <point x="234" y="322" type="line"/>
      <point x="234" y="137" type="line"/>
      <point x="588" y="137" type="line" smooth="yes"/>
      <point x="929" y="137"/>
      <point x="1026" y="253"/>
      <point x="1026" y="450" type="curve" smooth="yes"/>
      <point x="1026" y="645"/>
      <point x="929" y="760"/>
      <point x="589" y="760" type="curve" smooth="yes"/>
      <point x="234" y="760" type="line"/>
    </contour>
  </outline>
</glyph>
<glyph name="Q" format="2">
  <advance width="1227"/>
  <unicode hex="0051"/>
  <outline>
    <contour>
      <point x="571" y="-130" type="line"/>
      <point x="827" y="-130" type="line"/>
      <point x="707" y="107" type="line"/>
      <point x="459" y="100" type="line"/>
    </contour>
    <component base="O"/>
  </outline>
</glyph>
<glyph name="R" format="2">
  <advance width="1075"/>
  <unicode hex="0052"/>
  <outline>
    <contour>
      <point x="746" y="0" type="line"/>
      <point x="1017" y="0" type="line"/>
      <point x="938" y="107" type="line" smooth="yes"/>
      <point x="885" y="171"/>
      <point x="838" y="213"/>
      <point x="769" y="212" type="curve"/>
      <point x="598" y="212" type="line"/>
    </contour>
    <contour>
      <point x="76" y="0" type="line"/>
      <point x="332" y="0" type="line"/>
      <point x="332" y="760" type="line"/>
      <point x="76" y="760" type="line"/>
    </contour>
    <contour>
      <point x="234" y="576" type="line"/>
      <point x="610" y="576" type="line" smooth="yes"/>
      <point x="747" y="576"/>
      <point x="793" y="534"/>
      <point x="793" y="450" type="curve" smooth="yes"/>
      <point x="793" y="361"/>
      <point x="747" y="322"/>
      <point x="610" y="322" type="curve" smooth="yes"/>
      <point x="234" y="322" type="line"/>
      <point x="234" y="174" type="line"/>
      <point x="590" y="174" type="line" smooth="yes"/>
      <point x="929" y="174"/>
      <point x="1028" y="283"/>
      <point x="1028" y="468" type="curve" smooth="yes"/>
      <point x="1028" y="652"/>
      <point x="928" y="760"/>
      <point x="590" y="760" type="curve" smooth="yes"/>
      <point x="234" y="760" type="line"/>
    </contour>
  </outline>
</glyph>
<glyph name="S" format="2">
  <advance width="1085"/>
  <unicode hex="0053"/>
  <outline>
    <contour>
      <point x="1029" y="225" type="curve" smooth="yes"/>
      <point x="1029" y="398"/>
      <point x="926" y="453"/>
      <point x="645" y="466" type="curve" smooth="yes"/>
      <point x="480" y="474" type="line" smooth="yes"/>
      <point x="334" y="483"/>
      <point x="282" y="497"/>
      <point x="282" y="542" type="curve" smooth="yes"/>
      <point x="282" y="584"/>
      <point x="335" y="609"/>
      <point x="476" y="609" type="curve" smooth="yes"/>
      <point x="590" y="609" type="line" smooth="yes"/>
      <point x="743" y="609"/>
      <point x="870" y="589"/>
      <point x="965" y="564" type="curve"/>
      <point x="995" y="717" type="line"/>
      <point x="898" y="745"/>
      <point x="743" y="769"/>
      <point x="620" y="769" type="curve" smooth="yes"/>
      <point x="543" y="769" type="line" smooth="yes"/>
      <point x="206" y="769"/>
      <point x="67" y="691"/>
      <point x="67" y="527" type="curve" smooth="yes"/>
      <point x="67" y="371"/>
      <point x="185" y="312"/>
      <point x="452" y="298" type="curve" smooth="yes"/>
      <point x="610" y="290" type="line" smooth="yes"/>
      <point x="756" y="281"/>
      <point x="808" y="271"/>
      <point x="808" y="222" type="curve" smooth="yes"/>
      <point x="808" y="177"/>
      <point x="752" y="152"/>
      <point x="591" y="152" type="curve" smooth="yes"/>
      <point x="483" y="152" type="line" smooth="yes"/>
      <point x="327" y="152"/>
      <point x="191" y="171"/>
      <point x="86" y="198" type="curve"/>
      <point x="58" y="44" type="line"/>
      <point x="167" y="14"/>
      <point x="331" y="-9"/>
      <point x="454" y="-9" type="curve" smooth="yes"/>
      <point x="539" y="-9" type="line" smooth="yes"/>
      <point x="908" y="-9"/>
      <point x="1029" y="83"/>
    </contour>
  </outline>
</glyph>
<glyph name="T" format="2">
  <advance width="1079"/>
  <unicode hex="0054"/>
  <outline>
    <contour>
      <point x="412" y="0" type="line"/>
      <point x="668" y="0" type="line"/>
      <point x="668" y="760" type="line"/>
      <point x="412" y="760" type="line"/>
    </contour>
    <contour>
      <point x="27" y="567" type="line"/>
      <point x="1052" y="567" type="line"/>
      <point x="1052" y="760" type="line"/>
      <point x="27" y="760" type="line"/>
    </contour>
  </outline>
</glyph>
<glyph name="U" format="2">
  <advance width="1143"/>
  <unicode hex="0055"/>
  <outline>
    <contour>
      <point x="571" y="-10" type="curve" smooth="yes"/>
      <point x="871" y="-10"/>
      <point x="1053" y="115"/>
      <point x="1053" y="376" type="curve" smooth="yes"/>
      <point x="1053" y="760" type="line"/>
      <point x="791" y="760" type="line"/>
      <point x="791" y="370" type="line" smooth="yes"/>
      <point x="791" y="234"/>
      <point x="707" y="177"/>
      <point x="571" y="177" type="curve" smooth="yes"/>
      <point x="436" y="177"/>
      <point x="352" y="234"/>
      <point x="352" y="370" type="curve" smooth="yes"/>
      <point x="352" y="760" type="line"/>
      <point x="90" y="760" type="line"/>
      <point x="90" y="376" type="line" smooth="yes"/>
      <point x="90" y="115"/>
      <point x="270" y="-10"/>
    </contour>
  </outline>
</glyph>
<glyph name="V" format="2">
  <advance width="1129"/>
  <unicode hex="0056"/>
  <outline>
    <contour>
      <point x="1103" y="760" type="line"/>
      <point x="897" y="760" type="line"/>
      <point x="558" y="0" type="line"/>
      <point x="736" y="0" type="line"/>
    </contour>
    <contour>
      <point x="313" y="760" type="line"/>
      <point x="25" y="760" type="line"/>
      <point x="390" y="0" type="line"/>
      <point x="664" y="0" type="line"/>
    </contour>
    <contour>
      <point x="708" y="171" type="line"/>
      <point x="449" y="171" type="line"/>
      <point x="449" y="0" type="line"/>
      <point x="708" y="0" type="line"/>
    </contour>
  </outline>
</glyph>
<glyph name="W" format="2">
  <advance width="1243"/>
  <unicode hex="0057"/>
  <outline>
    <contour>
      <point x="1216" y="760" type="line"/>
      <point x="987" y="760" type="line"/>
      <point x="844" y="187" type="line"/>
      <point x="865" y="187" type="line"/>
      <point x="717" y="760" type="line"/>
      <point x="549" y="760" type="line"/>
      <point x="411" y="184" type="line"/>
      <point x="433" y="184" type="line"/>
      <point x="285" y="760" type="line"/>
      <point x="25" y="760" type="line"/>
      <point x="228" y="0" type="line"/>
      <point x="484" y="0" type="line"/>
      <point x="624" y="535" type="line"/>
      <point x="582" y="535" type="line"/>
      <point x="739" y="0" type="line"/>
      <point x="1020" y="0" type="line"/>
    </contour>
  </outline>
</glyph>
<glyph name="X" format="2">
  <advance width="1063"/>
  <unicode hex="0058"/>
  <outline>
    <contour>
      <point x="734" y="0" type="line"/>
      <point x="1038" y="0" type="line"/>
      <point x="632" y="434" type="line"/>
      <point x="333" y="760" type="line"/>
      <point x="29" y="760" type="line"/>
      <point x="419" y="361" type="line"/>
    </contour>
    <contour>
      <point x="26" y="-1" type="line"/>
      <point x="288" y="0" type="line"/>
      <point x="542" y="330" type="line"/>
      <point x="635" y="334" type="line"/>
      <point x="1034" y="760" type="line"/>
      <point x="771" y="760" type="line"/>
      <point x="509" y="442" type="line"/>
      <point x="412" y="436" type="line"/>
    </contour>
  </outline>
</glyph>
<glyph name="Y" format="2">
  <advance width="1020"/>
  <unicode hex="0059"/>
  <outline>
    <contour>
      <point x="998" y="760" type="line"/>
      <point x="783" y="760" type="line"/>
      <point x="471" y="206" type="line"/>
      <point x="635" y="196" type="line"/>
    </contour>
    <contour>
      <point x="290" y="760" type="line"/>
      <point x="22" y="760" type="line"/>
      <point x="384" y="196" type="line"/>
      <point x="616" y="206" type="line"/>
    </contour>
    <contour>
      <point x="638" y="303" type="line"/>
      <point x="382" y="303" type="line"/>
      <point x="382" y="0" type="line"/>
      <point x="638" y="0" type="line"/>
    </contour>
  </outline>
</glyph>
<glyph name="Z" format="2">
  <advance width="1110"/>
  <unicode hex="005A"/>
  <outline>
    <contour>
      <point x="76" y="179" type="line"/>
      <point x="381" y="121" type="line"/>
      <point x="1035" y="581" type="line"/>
      <point x="729" y="639" type="line"/>
    </contour>
    <contour>
      <point x="76" y="581" type="line"/>
      <point x="1035" y="581" type="line"/>
      <point x="1035" y="760" type="line"/>
      <point x="76" y="760" type="line"/>
    </contour>
    <contour>
      <point x="76" y="0" type="line"/>
      <point x="1035" y="0" type="line"/>
      <point x="1035" y="179" type="line"/>
      <point x="76" y="179" type="line"/>
    </contour>
  </outline>
</glyph>
